<?xml version="1.0" standalone="no"?>
<!DOCTYPE svg PUBLIC "-//W3C//DTD SVG 20010904//EN"
 "http://www.w3.org/TR/2001/REC-SVG-20010904/DTD/svg10.dtd">
<svg version="1.0" xmlns="http://www.w3.org/2000/svg"
 width="1269.000000pt" height="537.000000pt" viewBox="0 0 1269.000000 537.000000"
 preserveAspectRatio="xMidYMid meet">
<metadata>
Created by potrace 1.16, written by Peter Selinger 2001-2019
</metadata>
<g transform="translate(0.000000,537.000000) scale(0.100000,-0.100000)"
fill="#b8452f" stroke="none">
<path d="M9270 4395 c0 -10 -10 -15 -30 -15 -20 0 -30 -5 -30 -15 0 -8 -7 -15
-15 -15 -12 0 -15 -17 -15 -90 0 -73 3 -90 15 -90 8 0 15 -7 15 -15 0 -8 7
-15 15 -15 11 0 15 -12 15 -45 0 -33 -4 -45 -15 -45 -10 0 -15 -10 -15 -30 0
-20 -5 -30 -15 -30 -8 0 -15 -7 -15 -15 0 -8 -7 -15 -15 -15 -13 0 -15 -38
-15 -285 0 -247 -2 -285 -15 -285 -8 0 -15 -7 -15 -15 0 -12 15 -15 75 -15 60
0 75 3 75 15 0 12 18 15 105 15 87 0 105 3 105 15 0 12 18 15 105 15 87 0 105
-3 105 -15 0 -12 -18 -15 -105 -15 -87 0 -105 -3 -105 -15 0 -12 -17 -15 -90
-15 l-90 0 0 -60 c0 -47 3 -60 15 -60 8 0 15 -7 15 -15 0 -8 7 -15 15 -15 8 0
15 7 15 15 0 13 28 15 195 15 167 0 195 2 195 15 0 12 17 15 90 15 l90 0 0 60
c0 47 3 60 15 60 8 0 15 7 15 15 0 12 13 15 60 15 47 0 60 3 60 15 0 8 7 15
15 15 8 0 15 7 15 15 0 8 -7 15 -15 15 -8 0 -15 7 -15 15 0 12 -15 15 -75 15
l-75 0 0 60 c0 47 3 60 15 60 8 0 15 7 15 15 0 8 7 15 15 15 8 0 15 7 15 15 0
10 10 15 30 15 20 0 30 5 30 15 0 8 7 15 15 15 10 0 15 10 15 30 0 20 5 30 15
30 8 0 15 7 15 15 0 8 -7 15 -15 15 -12 0 -15 15 -15 75 0 60 -3 75 -15 75 -8
0 -15 7 -15 15 0 12 -17 15 -90 15 -73 0 -90 -3 -90 -15 0 -11 -12 -15 -45
-15 -33 0 -45 -4 -45 -15 0 -8 -7 -15 -15 -15 -10 0 -15 -10 -15 -30 0 -20 5
-30 15 -30 12 0 15 -13 15 -60 0 -47 3 -60 15 -60 8 0 15 -7 15 -15 0 -8 7
-15 15 -15 8 0 15 -7 15 -15 0 -8 7 -15 15 -15 8 0 15 -7 15 -15 0 -8 7 -15
15 -15 12 0 15 -15 15 -75 0 -60 -3 -75 -15 -75 -8 0 -15 -7 -15 -15 0 -13
-33 -15 -240 -15 l-240 0 0 135 0 135 45 0 c33 0 45 -4 45 -15 0 -8 7 -15 15
-15 8 0 15 -7 15 -15 0 -8 7 -15 15 -15 10 0 15 -10 15 -30 0 -20 5 -30 15
-30 10 0 15 -10 15 -30 0 -20 5 -30 15 -30 8 0 15 -7 15 -15 0 -8 7 -15 15
-15 11 0 15 12 15 45 0 33 -4 45 -15 45 -11 0 -15 12 -15 45 0 33 -4 45 -15
45 -8 0 -15 7 -15 15 0 8 -7 15 -15 15 -8 0 -15 7 -15 15 0 8 -7 15 -15 15 -8
0 -15 7 -15 15 0 11 -12 15 -45 15 -43 0 -45 1 -45 30 0 27 3 30 30 30 l30 0
0 60 c0 47 -3 60 -15 60 -8 0 -15 7 -15 15 0 8 -7 15 -15 15 -8 0 -15 7 -15
15 0 8 -7 15 -15 15 -8 0 -15 7 -15 15 0 8 -7 15 -15 15 -10 0 -15 10 -15 30
0 20 5 30 15 30 10 0 15 10 15 30 0 20 5 30 15 30 12 0 15 15 15 75 0 60 -3
75 -15 75 -10 0 -15 10 -15 30 l0 30 -60 0 c-47 0 -60 -3 -60 -15z m60 -60 c0
-8 7 -15 15 -15 10 0 15 -10 15 -30 0 -20 5 -30 15 -30 10 0 15 -10 15 -30 0
-29 -2 -30 -45 -30 -33 0 -45 -4 -45 -15 0 -10 -10 -15 -30 -15 l-30 0 0 75
c0 60 3 75 15 75 8 0 15 7 15 15 0 10 10 15 30 15 20 0 30 -5 30 -15z m30
-300 c0 -8 7 -15 15 -15 8 0 15 -7 15 -15 0 -8 7 -15 15 -15 11 0 15 -12 15
-45 0 -33 -4 -45 -15 -45 -8 0 -15 -7 -15 -15 0 -8 -7 -15 -15 -15 -8 0 -15
-7 -15 -15 0 -10 -10 -15 -30 -15 -20 0 -30 -5 -30 -15 0 -8 -7 -15 -15 -15
-12 0 -15 17 -15 90 0 73 3 90 15 90 8 0 15 7 15 15 0 8 7 15 15 15 8 0 15 7
15 15 0 8 7 15 15 15 8 0 15 -7 15 -15z m690 -180 l0 -75 -30 0 c-20 0 -30 -5
-30 -15 0 -8 -7 -15 -15 -15 -8 0 -15 -7 -15 -15 0 -8 -7 -15 -15 -15 -8 0
-15 7 -15 15 0 10 -10 15 -30 15 -27 0 -30 3 -30 30 0 27 -3 30 -30 30 -29 0
-30 2 -30 45 0 33 4 45 15 45 8 0 15 7 15 15 0 12 18 15 105 15 l105 0 0 -75z
m-810 -45 c0 -27 3 -30 30 -30 20 0 30 -5 30 -15 0 -8 7 -15 15 -15 8 0 15 -7
15 -15 0 -8 7 -15 15 -15 13 0 15 -22 15 -135 l0 -135 -30 0 c-20 0 -30 -5
-30 -15 0 -10 -10 -15 -30 -15 -20 0 -30 5 -30 15 0 8 -7 15 -15 15 -13 0 -15
28 -15 195 0 167 2 195 15 195 10 0 15 -10 15 -30z m570 -465 c0 -12 -15 -15
-75 -15 -60 0 -75 -3 -75 -15 0 -12 -13 -15 -60 -15 -47 0 -60 -3 -60 -15 0
-8 -7 -15 -15 -15 -8 0 -15 7 -15 15 0 10 -10 15 -30 15 -20 0 -30 -5 -30 -15
0 -8 -7 -15 -15 -15 -10 0 -15 10 -15 30 l0 30 60 0 c47 0 60 3 60 15 0 13 22
15 135 15 113 0 135 -2 135 -15z"/>
<path d="M7950 3915 c0 -11 -12 -15 -45 -15 -43 0 -45 -1 -45 -30 0 -29 2 -30
45 -30 33 0 45 4 45 15 0 13 20 15 120 15 l120 0 0 30 0 30 -120 0 c-100 0
-120 -2 -120 -15z"/>
<path d="M7020 3885 c0 -12 -20 -15 -120 -15 -100 0 -120 -2 -120 -15 0 -10
-10 -15 -30 -15 -20 0 -30 -5 -30 -15 0 -8 -7 -15 -15 -15 -13 0 -15 -40 -15
-300 0 -260 2 -300 15 -300 10 0 15 -10 15 -30 0 -20 -5 -30 -15 -30 -10 0
-15 -10 -15 -30 l0 -30 -360 0 -360 0 0 180 c0 153 2 180 15 180 10 0 15 10
15 30 l0 30 60 0 c47 0 60 3 60 15 0 12 18 15 105 15 87 0 105 -3 105 -15 0
-8 7 -15 15 -15 13 0 15 -20 15 -120 0 -100 3 -120 15 -120 8 0 15 -7 15 -15
0 -8 7 -15 15 -15 12 0 15 15 15 75 0 60 -3 75 -15 75 -12 0 -15 17 -15 90 0
73 -3 90 -15 90 -8 0 -15 7 -15 15 0 13 -20 15 -120 15 -100 0 -120 -2 -120
-15 0 -11 -12 -15 -45 -15 -33 0 -45 -4 -45 -15 0 -11 -12 -15 -45 -15 -33 0
-45 -4 -45 -15 0 -8 -7 -15 -15 -15 -8 0 -15 -7 -15 -15 0 -8 -7 -15 -15 -15
-10 0 -15 10 -15 30 0 20 -5 30 -15 30 -8 0 -15 7 -15 15 0 12 -18 15 -105 15
-87 0 -105 -3 -105 -15 0 -11 -12 -15 -45 -15 -33 0 -45 -4 -45 -15 0 -8 -7
-15 -15 -15 -8 0 -15 -7 -15 -15 0 -8 -7 -15 -15 -15 -12 0 -15 -13 -15 -60 0
-47 3 -60 15 -60 12 0 15 -17 15 -90 0 -73 3 -90 15 -90 10 0 15 -10 15 -30 0
-20 5 -30 15 -30 13 0 15 27 15 180 l0 180 30 0 c20 0 30 5 30 15 0 12 18 15
105 15 l105 0 0 -225 c0 -193 -2 -225 -15 -225 -8 0 -15 -7 -15 -15 0 -8 -7
-15 -15 -15 -8 0 -15 -7 -15 -15 0 -13 -40 -15 -300 -15 -260 0 -300 -2 -300
-15 0 -13 -23 -15 -150 -15 -127 0 -150 -2 -150 -15 0 -11 -12 -15 -45 -15
-33 0 -45 4 -45 15 0 8 -7 15 -15 15 -12 0 -15 15 -15 75 0 60 3 75 15 75 8 0
15 7 15 15 0 10 10 15 30 15 20 0 30 5 30 15 0 8 7 15 15 15 8 0 15 7 15 15 0
8 7 15 15 15 12 0 15 18 15 105 0 87 -3 105 -15 105 -12 0 -15 -15 -15 -75 0
-60 -3 -75 -15 -75 -8 0 -15 -7 -15 -15 0 -8 -7 -15 -15 -15 -8 0 -15 -7 -15
-15 0 -8 -7 -15 -15 -15 -8 0 -15 7 -15 15 0 8 -7 15 -15 15 -8 0 -15 -7 -15
-15 0 -10 -10 -15 -30 -15 -20 0 -30 -5 -30 -15 0 -8 -7 -15 -15 -15 -8 0 -15
7 -15 15 0 8 -7 15 -15 15 -8 0 -15 7 -15 15 0 8 -7 15 -15 15 -10 0 -15 10
-15 30 0 20 -5 30 -15 30 -12 0 -15 15 -15 75 0 60 -3 75 -15 75 -10 0 -15
-10 -15 -30 0 -20 -5 -30 -15 -30 -10 0 -15 -10 -15 -30 0 -20 5 -30 15 -30
11 0 15 -12 15 -45 0 -33 4 -45 15 -45 10 0 15 -10 15 -30 0 -27 3 -30 30 -30
20 0 30 -5 30 -15 0 -8 7 -15 15 -15 8 0 15 -7 15 -15 0 -8 7 -15 15 -15 12 0
15 -17 15 -90 l0 -90 -120 0 c-100 0 -120 -2 -120 -15 0 -13 -27 -15 -180 -15
-153 0 -180 -2 -180 -15 0 -12 -17 -15 -90 -15 -73 0 -90 -3 -90 -15 0 -13 35
-15 255 -15 220 0 255 2 255 15 0 13 32 15 225 15 193 0 225 2 225 15 0 13 20
15 120 15 100 0 120 -2 120 -15 0 -12 -15 -15 -75 -15 l-75 0 0 -30 c0 -20 5
-30 15 -30 8 0 15 -7 15 -15 0 -8 7 -15 15 -15 8 0 15 -7 15 -15 0 -13 27 -15
180 -15 153 0 180 2 180 15 0 13 20 15 120 15 100 0 120 3 120 15 0 10 10 15
30 15 29 0 30 2 30 45 l0 45 -75 0 c-60 0 -75 3 -75 15 0 12 -17 15 -90 15
-73 0 -90 3 -90 15 0 13 37 15 270 15 233 0 270 2 270 15 0 11 12 15 45 15 33
0 45 4 45 15 0 13 57 15 450 15 393 0 450 2 450 15 0 11 12 15 45 15 33 0 45
4 45 15 0 8 7 15 15 15 8 0 15 -7 15 -15 0 -12 17 -15 90 -15 73 0 90 3 90 15
0 12 18 15 105 15 87 0 105 3 105 15 0 13 22 15 135 15 113 0 135 2 135 15 0
12 13 15 60 15 l60 0 0 30 0 30 -60 0 c-47 0 -60 -3 -60 -15 0 -8 -7 -15 -15
-15 -8 0 -15 7 -15 15 0 8 -7 15 -15 15 -8 0 -15 7 -15 15 0 12 13 15 60 15
47 0 60 3 60 15 0 12 -17 15 -90 15 -73 0 -90 -3 -90 -15 0 -12 -18 -15 -105
-15 -87 0 -105 -3 -105 -15 0 -8 7 -15 15 -15 10 0 15 -10 15 -30 l0 -30 -90
0 -90 0 0 90 c0 73 -3 90 -15 90 -13 0 -15 38 -15 285 l0 285 -75 0 c-60 0
-75 -3 -75 -15z m120 -405 c0 -287 -2 -330 -15 -330 -8 0 -15 -7 -15 -15 0
-12 -18 -15 -105 -15 l-105 0 0 195 c0 167 2 195 15 195 12 0 15 13 15 60 0
47 -3 60 -15 60 -12 0 -15 -13 -15 -60 0 -47 -3 -60 -15 -60 -13 0 -15 -28
-15 -195 0 -167 -2 -195 -15 -195 -8 0 -15 -7 -15 -15 0 -10 -10 -15 -30 -15
l-30 0 0 75 c0 60 -3 75 -15 75 -13 0 -15 37 -15 270 l0 270 30 0 c20 0 30 5
30 15 0 13 25 15 165 15 l165 0 0 -330z m-1230 -225 c0 -60 -3 -75 -15 -75
-12 0 -15 15 -15 75 0 60 3 75 15 75 12 0 15 -15 15 -75z m-360 -390 c0 -13
-28 -15 -195 -15 -167 0 -195 2 -195 15 0 13 28 15 195 15 167 0 195 -2 195
-15z"/>
<path d="M6810 3645 c0 -8 7 -15 15 -15 8 0 15 7 15 15 0 8 -7 15 -15 15 -8 0
-15 -7 -15 -15z"/>
<path d="M7020 3405 c0 -193 2 -225 15 -225 8 0 15 -7 15 -15 0 -8 7 -15 15
-15 8 0 15 7 15 15 0 8 7 15 15 15 11 0 15 12 15 45 0 33 -4 45 -15 45 -12 0
-15 20 -15 120 0 100 -2 120 -15 120 -12 0 -15 13 -15 60 0 47 -3 60 -15 60
-13 0 -15 -32 -15 -225z"/>
<path d="M1620 3765 c0 -10 -10 -15 -30 -15 -20 0 -30 -5 -30 -15 0 -8 -7 -15
-15 -15 -8 0 -15 -7 -15 -15 0 -8 -7 -15 -15 -15 -8 0 -15 -7 -15 -15 0 -8 -7
-15 -15 -15 -12 0 -15 -13 -15 -60 0 -47 3 -60 15 -60 10 0 15 -10 15 -30 0
-20 5 -30 15 -30 8 0 15 -7 15 -15 0 -8 7 -15 15 -15 8 0 15 -7 15 -15 0 -8 7
-15 15 -15 8 0 15 -7 15 -15 0 -8 7 -15 15 -15 8 0 15 -7 15 -15 0 -12 -13
-15 -60 -15 -47 0 -60 -3 -60 -15 0 -8 -7 -15 -15 -15 -8 0 -15 -7 -15 -15 0
-10 -10 -15 -30 -15 -20 0 -30 -5 -30 -15 0 -8 -7 -15 -15 -15 -8 0 -15 -7
-15 -15 0 -8 -7 -15 -15 -15 -13 0 -15 -28 -15 -195 0 -167 2 -195 15 -195 11
0 15 -12 15 -45 0 -43 1 -45 30 -45 27 0 30 3 30 30 0 20 5 30 15 30 11 0 15
12 15 45 0 33 -4 45 -15 45 -13 0 -15 22 -15 135 0 113 2 135 15 135 11 0 15
12 15 45 0 43 1 45 30 45 20 0 30 5 30 15 0 12 13 15 60 15 l60 0 0 -105 c0
-87 3 -105 15 -105 12 0 15 18 15 105 0 87 3 105 15 105 12 0 15 -18 15 -105
0 -87 3 -105 15 -105 13 0 15 -30 15 -210 0 -180 2 -210 15 -210 8 0 15 -7 15
-15 0 -8 -7 -15 -15 -15 -10 0 -15 -10 -15 -30 l0 -30 -90 0 c-73 0 -90 3 -90
15 0 8 -7 15 -15 15 -12 0 -15 17 -15 90 0 73 3 90 15 90 8 0 15 -7 15 -15 0
-8 7 -15 15 -15 11 0 15 -12 15 -45 0 -33 4 -45 15 -45 8 0 15 -7 15 -15 0 -8
7 -15 15 -15 12 0 15 17 15 90 0 73 -3 90 -15 90 -13 0 -15 22 -15 135 0 113
-2 135 -15 135 -8 0 -15 -7 -15 -15 0 -8 -7 -15 -15 -15 -11 0 -15 -12 -15
-45 0 -33 -4 -45 -15 -45 -12 0 -15 -15 -15 -75 0 -60 -3 -75 -15 -75 -12 0
-15 -18 -15 -105 0 -87 3 -105 15 -105 10 0 15 -10 15 -30 0 -20 5 -30 15 -30
8 0 15 -7 15 -15 0 -8 7 -15 15 -15 8 0 15 7 15 15 0 8 7 15 15 15 8 0 15 -7
15 -15 0 -12 15 -15 75 -15 60 0 75 3 75 15 0 8 7 15 15 15 8 0 15 7 15 15 0
8 7 15 15 15 8 0 15 7 15 15 0 8 7 15 15 15 8 0 15 -7 15 -15 0 -8 7 -15 15
-15 10 0 15 -10 15 -30 0 -20 5 -30 15 -30 10 0 15 -10 15 -30 l0 -30 360 0
c313 0 360 2 360 15 0 10 10 15 30 15 27 0 30 3 30 30 0 20 -5 30 -15 30 -8 0
-15 7 -15 15 0 13 -38 15 -285 15 -247 0 -285 -2 -285 -15 0 -12 -15 -15 -75
-15 -60 0 -75 3 -75 15 0 8 7 15 15 15 8 0 15 7 15 15 0 13 23 15 150 15 127
0 150 2 150 15 0 13 20 15 120 15 100 0 120 3 120 15 0 12 17 15 90 15 73 0
90 3 90 15 0 13 43 15 330 15 287 0 330 2 330 15 0 13 32 15 225 15 193 0 225
2 225 15 0 8 7 15 15 15 13 0 15 43 15 330 0 287 -2 330 -15 330 -8 0 -15 7
-15 15 0 13 -22 15 -135 15 l-135 0 0 30 c0 20 -5 30 -15 30 -12 0 -15 13 -15
60 l0 60 30 0 c20 0 30 -5 30 -15 0 -8 7 -15 15 -15 10 0 15 -10 15 -30 0 -20
-5 -30 -15 -30 -8 0 -15 -7 -15 -15 0 -8 7 -15 15 -15 8 0 15 7 15 15 0 8 7
15 15 15 11 0 15 12 15 45 0 33 -4 45 -15 45 -10 0 -15 10 -15 30 0 20 -5 30
-15 30 -8 0 -15 7 -15 15 0 10 -10 15 -30 15 -27 0 -30 -3 -30 -30 0 -27 -3
-30 -30 -30 -20 0 -30 5 -30 15 0 8 -7 15 -15 15 -11 0 -15 -12 -15 -45 0 -33
4 -45 15 -45 8 0 15 -7 15 -15 0 -8 7 -15 15 -15 10 0 15 -10 15 -30 0 -20 -5
-30 -15 -30 -10 0 -15 -10 -15 -30 0 -29 -2 -30 -45 -30 -33 0 -45 -4 -45 -15
0 -8 -7 -15 -15 -15 -12 0 -15 -13 -15 -60 0 -47 3 -60 15 -60 13 0 15 -20 15
-120 0 -100 3 -120 15 -120 12 0 15 -15 15 -75 0 -60 3 -75 15 -75 12 0 15
-13 15 -60 0 -47 -3 -60 -15 -60 -8 0 -15 -7 -15 -15 0 -13 -28 -15 -195 -15
-167 0 -195 -2 -195 -15 0 -13 -32 -15 -225 -15 -193 0 -225 -2 -225 -15 0
-12 -20 -15 -120 -15 -100 0 -120 3 -120 15 0 11 -12 15 -45 15 -33 0 -45 4
-45 15 0 8 -7 15 -15 15 -12 0 -15 13 -15 60 0 47 3 60 15 60 8 0 15 7 15 15
0 8 7 15 15 15 8 0 15 7 15 15 0 8 7 15 15 15 10 0 15 10 15 30 0 20 5 30 15
30 12 0 15 15 15 75 l0 75 -30 0 -30 0 0 -90 0 -90 -30 0 c-20 0 -30 5 -30 15
0 8 -7 15 -15 15 -8 0 -15 -7 -15 -15 0 -12 -13 -15 -60 -15 -47 0 -60 3 -60
15 0 8 -7 15 -15 15 -8 0 -15 7 -15 15 0 8 -7 15 -15 15 -11 0 -15 12 -15 45
0 33 -4 45 -15 45 -12 0 -15 -15 -15 -75 0 -60 3 -75 15 -75 8 0 15 -7 15 -15
0 -10 10 -15 30 -15 20 0 30 -5 30 -15 0 -10 10 -15 30 -15 20 0 30 -5 30 -15
0 -8 7 -15 15 -15 8 0 15 -7 15 -15 0 -8 7 -15 15 -15 11 0 15 -12 15 -45 0
-33 -4 -45 -15 -45 -8 0 -15 -7 -15 -15 0 -12 -13 -15 -60 -15 l-60 0 0 -30
c0 -27 -3 -30 -30 -30 -20 0 -30 -5 -30 -15 0 -11 -12 -15 -45 -15 -33 0 -45
4 -45 15 0 10 -10 15 -30 15 l-30 0 0 195 c0 167 -2 195 -15 195 -12 0 -15 20
-15 120 0 100 -2 120 -15 120 -8 0 -15 7 -15 15 0 8 -7 15 -15 15 -8 0 -15 7
-15 15 0 8 7 15 15 15 8 0 15 7 15 15 0 10 10 15 30 15 20 0 30 5 30 15 0 8 7
15 15 15 10 0 15 10 15 30 0 20 5 30 15 30 12 0 15 15 15 75 0 60 -3 75 -15
75 -11 0 -15 12 -15 45 0 33 -4 45 -15 45 -8 0 -15 7 -15 15 0 10 -10 15 -30
15 -20 0 -30 5 -30 15 0 12 -13 15 -60 15 -47 0 -60 -3 -60 -15z m120 -60 c0
-8 7 -15 15 -15 8 0 15 -7 15 -15 0 -8 7 -15 15 -15 12 0 15 -17 15 -90 0 -73
-3 -90 -15 -90 -10 0 -15 10 -15 30 0 27 -3 30 -30 30 -29 0 -30 -2 -30 -45 0
-33 -4 -45 -15 -45 -12 0 -15 -13 -15 -60 0 -47 -3 -60 -15 -60 -11 0 -15 12
-15 45 0 33 -4 45 -15 45 -10 0 -15 10 -15 30 0 20 -5 30 -15 30 -8 0 -15 7
-15 15 0 10 -10 15 -30 15 l-30 0 0 75 c0 60 3 75 15 75 8 0 15 7 15 15 0 10
10 15 30 15 20 0 30 5 30 15 0 12 13 15 60 15 47 0 60 -3 60 -15z m2040 -615
c0 -260 -2 -300 -15 -300 -8 0 -15 7 -15 15 0 8 -7 15 -15 15 -12 0 -15 13
-15 60 0 47 -3 60 -15 60 -12 0 -15 13 -15 60 0 47 -3 60 -15 60 -12 0 -15 13
-15 60 0 47 -3 60 -15 60 -8 0 -15 7 -15 15 0 10 -10 15 -30 15 -27 0 -30 -3
-30 -30 0 -20 -5 -30 -15 -30 -8 0 -15 -7 -15 -15 0 -10 -10 -15 -30 -15 l-30
0 0 90 c0 73 3 90 15 90 8 0 15 7 15 15 0 11 12 15 45 15 33 0 45 4 45 15 0 8
7 15 15 15 8 0 15 7 15 15 0 12 15 15 75 15 l75 0 0 -300z m-360 180 c0 -47
-3 -60 -15 -60 -12 0 -15 13 -15 60 0 47 3 60 15 60 12 0 15 -13 15 -60z
m-2010 -210 c0 -73 -3 -90 -15 -90 -12 0 -15 17 -15 90 0 73 3 90 15 90 12 0
15 -17 15 -90z m2220 -30 c0 -73 3 -90 15 -90 12 0 15 -15 15 -75 l0 -75 -45
0 -45 0 0 135 c0 113 2 135 15 135 10 0 15 10 15 30 0 20 5 30 15 30 12 0 15
-17 15 -90z m-120 -135 c0 -87 -3 -105 -15 -105 -12 0 -15 18 -15 105 0 87 3
105 15 105 12 0 15 -18 15 -105z"/>
<path d="M7860 3735 c0 -33 4 -45 15 -45 8 0 15 -7 15 -15 0 -8 7 -15 15 -15
10 0 15 -10 15 -30 0 -20 5 -30 15 -30 8 0 15 -7 15 -15 0 -10 10 -15 30 -15
20 0 30 -5 30 -15 0 -10 10 -15 30 -15 l30 0 0 -90 0 -90 -45 0 c-33 0 -45 -4
-45 -15 0 -8 -7 -15 -15 -15 -10 0 -15 -10 -15 -30 0 -27 3 -30 30 -30 20 0
30 -5 30 -15 0 -8 -7 -15 -15 -15 -8 0 -15 -7 -15 -15 0 -12 15 -15 75 -15 60
0 75 3 75 15 0 12 17 15 90 15 73 0 90 -3 90 -15 0 -11 -12 -15 -45 -15 -43 0
-45 -1 -45 -30 0 -20 5 -30 15 -30 8 0 15 -7 15 -15 0 -13 42 -15 315 -15 273
0 315 2 315 15 0 11 12 15 45 15 33 0 45 4 45 15 0 8 7 15 15 15 8 0 15 7 15
15 0 8 -7 15 -15 15 -10 0 -15 10 -15 30 l0 30 -135 0 c-113 0 -135 -2 -135
-15 0 -13 -27 -15 -180 -15 -153 0 -180 2 -180 15 0 13 20 15 120 15 100 0
120 3 120 15 0 13 20 15 120 15 100 0 120 3 120 15 0 12 15 15 75 15 60 0 75
3 75 15 0 11 12 15 45 15 33 0 45 4 45 15 0 12 -18 15 -105 15 -87 0 -105 3
-105 15 0 8 -7 15 -15 15 -12 0 -15 15 -15 75 0 60 3 75 15 75 12 0 15 17 15
90 l0 90 90 0 c73 0 90 -3 90 -15 0 -8 7 -15 15 -15 10 0 15 -10 15 -30 0 -20
5 -30 15 -30 8 0 15 -7 15 -15 0 -8 -7 -15 -15 -15 -10 0 -15 -10 -15 -30 0
-20 5 -30 15 -30 10 0 15 -10 15 -30 0 -20 5 -30 15 -30 12 0 15 18 15 105 0
87 -3 105 -15 105 -10 0 -15 10 -15 30 l0 30 -150 0 -150 0 0 -60 c0 -47 -3
-60 -15 -60 -8 0 -15 -7 -15 -15 0 -8 7 -15 15 -15 12 0 15 -13 15 -60 0 -47
-3 -60 -15 -60 -10 0 -15 -10 -15 -30 0 -20 5 -30 15 -30 10 0 15 -10 15 -30
0 -20 -5 -30 -15 -30 -8 0 -15 -7 -15 -15 0 -12 -17 -15 -90 -15 -73 0 -90 -3
-90 -15 0 -12 -18 -15 -105 -15 -87 0 -105 -3 -105 -15 0 -8 -7 -15 -15 -15
-11 0 -15 12 -15 45 l0 45 -90 0 c-73 0 -90 3 -90 15 0 8 -7 15 -15 15 -8 0
-15 7 -15 15 0 8 7 15 15 15 8 0 15 7 15 15 0 8 -7 15 -15 15 -10 0 -15 10
-15 30 0 20 5 30 15 30 8 0 15 7 15 15 0 10 10 15 30 15 20 0 30 5 30 15 0 8
7 15 15 15 8 0 15 7 15 15 0 10 -10 15 -30 15 -20 0 -30 -5 -30 -15 0 -8 -7
-15 -15 -15 -10 0 -15 10 -15 30 0 27 -3 30 -30 30 -27 0 -30 -3 -30 -30 0
-29 -2 -30 -45 -30 -33 0 -45 4 -45 15 0 10 -10 15 -30 15 -27 0 -30 3 -30 30
0 20 -5 30 -15 30 -11 0 -15 12 -15 45 0 43 -1 45 -30 45 -29 0 -30 -2 -30
-45z m240 -420 c0 -8 -7 -15 -15 -15 -8 0 -15 7 -15 15 0 8 7 15 15 15 8 0 15
-7 15 -15z m180 -15 c0 -29 -2 -30 -45 -30 -43 0 -45 1 -45 30 0 29 2 30 45
30 43 0 45 -1 45 -30z m450 -135 c0 -12 -13 -15 -60 -15 -47 0 -60 3 -60 15 0
12 13 15 60 15 47 0 60 -3 60 -15z"/>
<path d="M8220 3720 c0 -47 3 -60 15 -60 12 0 15 13 15 60 0 47 -3 60 -15 60
-12 0 -15 -13 -15 -60z"/>
<path d="M10230 3615 c0 -10 -10 -15 -30 -15 -27 0 -30 -3 -30 -30 0 -20 -5
-30 -15 -30 -11 0 -15 -12 -15 -45 0 -33 4 -45 15 -45 11 0 15 -12 15 -45 0
-43 1 -45 30 -45 20 0 30 -5 30 -15 0 -12 18 -15 105 -15 87 0 105 3 105 15 0
12 13 15 60 15 l60 0 0 60 c0 47 -3 60 -15 60 -8 0 -15 7 -15 15 0 8 -7 15
-15 15 -8 0 -15 7 -15 15 0 12 -13 15 -60 15 -47 0 -60 3 -60 15 0 12 17 15
90 15 l90 0 0 -45 c0 -33 4 -45 15 -45 8 0 15 -7 15 -15 0 -8 7 -15 15 -15 8
0 15 -7 15 -15 0 -12 17 -15 90 -15 73 0 90 -3 90 -15 0 -11 12 -15 45 -15 33
0 45 -4 45 -15 0 -12 -17 -15 -90 -15 -73 0 -90 -3 -90 -15 0 -11 -12 -15 -45
-15 -33 0 -45 -4 -45 -15 0 -8 -7 -15 -15 -15 -8 0 -15 7 -15 15 0 8 -7 15
-15 15 -8 0 -15 -7 -15 -15 0 -8 -7 -15 -15 -15 -8 0 -15 7 -15 15 0 10 -10
15 -30 15 -20 0 -30 -5 -30 -15 0 -8 -7 -15 -15 -15 -8 0 -15 -7 -15 -15 0
-13 -30 -15 -210 -15 l-210 0 0 -30 0 -30 -60 0 c-47 0 -60 -3 -60 -15 0 -12
-17 -15 -90 -15 -73 0 -90 -3 -90 -15 0 -12 -20 -15 -120 -15 -100 0 -120 -2
-120 -15 0 -13 -25 -15 -165 -15 -140 0 -165 -2 -165 -15 0 -13 -25 -15 -165
-15 -140 0 -165 -2 -165 -15 0 -12 -17 -15 -90 -15 -73 0 -90 -3 -90 -15 0
-12 -17 -15 -90 -15 -73 0 -90 -3 -90 -15 0 -12 -20 -15 -120 -15 -100 0 -120
-2 -120 -15 0 -12 -20 -15 -120 -15 -100 0 -120 -2 -120 -15 0 -12 -18 -15
-105 -15 -87 0 -105 -3 -105 -15 0 -11 -12 -15 -45 -15 -33 0 -45 -4 -45 -15
0 -13 -23 -15 -150 -15 -127 0 -150 -2 -150 -15 0 -13 -30 -15 -210 -15 -180
0 -210 -2 -210 -15 0 -13 -27 -15 -180 -15 -153 0 -180 -2 -180 -15 0 -12 -20
-15 -120 -15 -100 0 -120 -2 -120 -15 0 -13 -27 -15 -180 -15 -153 0 -180 -2
-180 -15 0 -13 -27 -15 -180 -15 -153 0 -180 -2 -180 -15 0 -13 -32 -15 -225
-15 -193 0 -225 -2 -225 -15 0 -13 -23 -15 -150 -15 -127 0 -150 -2 -150 -15
0 -12 -17 -15 -90 -15 -73 0 -90 -3 -90 -15 0 -12 -20 -15 -120 -15 -100 0
-120 -2 -120 -15 0 -13 -22 -15 -135 -15 -113 0 -135 -2 -135 -15 0 -12 -17
-15 -90 -15 -73 0 -90 -3 -90 -15 0 -12 -17 -15 -90 -15 -73 0 -90 -3 -90 -15
0 -12 -20 -15 -120 -15 -100 0 -120 -2 -120 -15 0 -13 -27 -15 -180 -15 -153
0 -180 -2 -180 -15 0 -13 -22 -15 -135 -15 -113 0 -135 -2 -135 -15 0 -12 -20
-15 -120 -15 -100 0 -120 -2 -120 -15 0 -12 -15 -15 -75 -15 -60 0 -75 -3 -75
-15 0 -12 -17 -15 -90 -15 -73 0 -90 -3 -90 -15 0 -12 -20 -15 -120 -15 -100
0 -120 -2 -120 -15 0 -12 -17 -15 -90 -15 -73 0 -90 -3 -90 -15 0 -11 -12 -15
-45 -15 -33 0 -45 -4 -45 -15 0 -12 -15 -15 -75 -15 -60 0 -75 -3 -75 -15 0
-10 -10 -15 -30 -15 -20 0 -30 -5 -30 -15 0 -12 13 -15 60 -15 47 0 60 3 60
15 0 13 20 15 120 15 100 0 120 3 120 15 0 12 18 15 105 15 87 0 105 3 105 15
0 12 18 15 105 15 87 0 105 3 105 15 0 12 13 15 60 15 47 0 60 3 60 15 0 12
17 15 90 15 73 0 90 3 90 15 0 13 20 15 120 15 100 0 120 3 120 15 0 13 22 15
135 15 113 0 135 2 135 15 0 13 22 15 135 15 113 0 135 2 135 15 0 12 18 15
105 15 87 0 105 3 105 15 0 13 22 15 135 15 113 0 135 2 135 15 0 12 17 15 90
15 73 0 90 3 90 15 0 13 23 15 150 15 127 0 150 2 150 15 0 12 13 15 60 15 47
0 60 3 60 15 0 12 18 15 105 15 87 0 105 3 105 15 0 13 25 15 165 15 140 0
165 2 165 15 0 13 32 15 225 15 193 0 225 2 225 15 0 12 17 15 90 15 73 0 90
3 90 15 0 13 27 15 180 15 153 0 180 2 180 15 0 13 33 15 240 15 207 0 240 2
240 15 0 13 28 15 195 15 167 0 195 2 195 15 0 13 22 15 135 15 113 0 135 2
135 15 0 12 17 15 90 15 73 0 90 3 90 15 0 13 20 15 120 15 100 0 120 3 120
15 0 13 23 15 150 15 127 0 150 2 150 15 0 13 20 15 120 15 100 0 120 3 120
15 0 12 13 15 60 15 47 0 60 3 60 15 0 12 18 15 105 15 87 0 105 3 105 15 0
13 23 15 150 15 127 0 150 2 150 15 0 13 23 15 150 15 127 0 150 2 150 15 0
12 18 15 105 15 87 0 105 3 105 15 0 13 23 15 150 15 127 0 150 2 150 15 0 13
20 15 120 15 100 0 120 3 120 15 0 12 15 15 75 15 60 0 75 3 75 15 0 12 13 15
60 15 47 0 60 3 60 15 0 12 15 15 75 15 60 0 75 3 75 15 0 12 15 15 75 15 60
0 75 3 75 15 0 12 18 15 105 15 87 0 105 3 105 15 0 12 17 15 90 15 73 0 90 3
90 15 0 12 15 15 75 15 60 0 75 3 75 15 0 11 12 15 45 15 l45 0 0 -105 c0 -87
3 -105 15 -105 13 0 15 -80 15 -660 0 -580 2 -660 15 -660 10 0 15 -10 15 -30
0 -20 -5 -30 -15 -30 -8 0 -15 -7 -15 -15 0 -8 -7 -15 -15 -15 -8 0 -15 -7
-15 -15 0 -8 7 -15 15 -15 8 0 15 -7 15 -15 0 -10 10 -15 30 -15 20 0 30 5 30
15 0 8 7 15 15 15 8 0 15 7 15 15 0 8 7 15 15 15 8 0 15 7 15 15 0 8 7 15 15
15 8 0 15 7 15 15 0 10 10 15 30 15 20 0 30 5 30 15 0 12 13 15 60 15 47 0 60
3 60 15 0 8 7 15 15 15 10 0 15 10 15 30 0 27 -3 30 -30 30 -20 0 -30 -5 -30
-15 0 -11 -12 -15 -45 -15 -33 0 -45 -4 -45 -15 0 -10 -10 -15 -30 -15 -20 0
-30 -5 -30 -15 0 -10 -10 -15 -30 -15 -20 0 -30 5 -30 15 0 8 -7 15 -15 15
-13 0 -15 68 -15 555 0 487 2 555 15 555 11 0 15 -12 15 -45 0 -33 4 -45 15
-45 11 0 15 -12 15 -45 0 -33 4 -45 15 -45 11 0 15 -12 15 -45 0 -33 4 -45 15
-45 11 0 15 -12 15 -45 0 -33 4 -45 15 -45 12 0 15 -13 15 -60 0 -47 3 -60 15
-60 12 0 15 -13 15 -60 0 -47 3 -60 15 -60 11 0 15 -12 15 -45 0 -33 4 -45 15
-45 11 0 15 -12 15 -45 0 -33 4 -45 15 -45 12 0 15 -15 15 -75 0 -60 3 -75 15
-75 11 0 15 -12 15 -45 l0 -45 45 0 c33 0 45 4 45 15 0 8 -7 15 -15 15 -12 0
-15 13 -15 60 0 47 -3 60 -15 60 -12 0 -15 13 -15 60 0 47 -3 60 -15 60 -10 0
-15 10 -15 30 0 20 -5 30 -15 30 -12 0 -15 13 -15 60 0 47 -3 60 -15 60 -12 0
-15 13 -15 60 0 47 -3 60 -15 60 -11 0 -15 12 -15 45 0 33 -4 45 -15 45 -10 0
-15 10 -15 30 0 20 -5 30 -15 30 -12 0 -15 13 -15 60 0 47 -3 60 -15 60 -12 0
-15 13 -15 60 0 47 -3 60 -15 60 -12 0 -15 13 -15 60 0 47 -3 60 -15 60 -10 0
-15 10 -15 30 0 20 -5 30 -15 30 -12 0 -15 13 -15 60 0 47 -3 60 -15 60 -11 0
-15 12 -15 45 0 33 -4 45 -15 45 -10 0 -15 10 -15 30 0 20 -5 30 -15 30 -8 0
-15 7 -15 15 0 10 -10 15 -30 15 -20 0 -30 5 -30 15 0 11 -12 15 -45 15 -33 0
-45 4 -45 15 0 12 -15 15 -75 15 -60 0 -75 3 -75 15 0 12 -18 15 -105 15 -87
0 -105 3 -105 15 0 8 -7 15 -15 15 -10 0 -15 10 -15 30 0 20 -5 30 -15 30 -10
0 -15 10 -15 30 l0 30 -180 0 c-153 0 -180 -2 -180 -15z m60 -90 c0 -11 12
-15 45 -15 33 0 45 -4 45 -15 0 -8 7 -15 15 -15 8 0 15 7 15 15 0 8 7 15 15
15 8 0 15 -7 15 -15 0 -8 7 -15 15 -15 10 0 15 -10 15 -30 0 -29 -2 -30 -45
-30 -33 0 -45 -4 -45 -15 0 -12 -13 -15 -60 -15 -47 0 -60 3 -60 15 0 8 -7 15
-15 15 -10 0 -15 10 -15 30 0 27 3 30 30 30 20 0 30 5 30 15 0 10 -10 15 -30
15 -20 0 -30 5 -30 15 0 10 10 15 30 15 20 0 30 -5 30 -15z"/>
<path d="M4590 3495 c0 -8 7 -15 15 -15 8 0 15 -7 15 -15 0 -12 18 -15 105
-15 87 0 105 3 105 15 0 8 7 15 15 15 8 0 15 7 15 15 0 13 -22 15 -135 15
-113 0 -135 -2 -135 -15z"/>
<path d="M1950 3210 l0 -30 135 0 c113 0 135 2 135 15 0 8 7 15 15 15 8 0 15
7 15 15 0 13 -23 15 -150 15 l-150 0 0 -30z"/>
<path d="M10530 3195 c0 -12 -18 -15 -105 -15 -87 0 -105 -3 -105 -15 0 -12
-13 -15 -60 -15 -47 0 -60 -3 -60 -15 0 -11 -12 -15 -45 -15 -33 0 -45 -4 -45
-15 0 -10 -10 -15 -30 -15 -20 0 -30 -5 -30 -15 0 -10 -10 -15 -30 -15 -20 0
-30 -5 -30 -15 0 -8 -7 -15 -15 -15 -10 0 -15 -10 -15 -30 0 -20 -5 -30 -15
-30 -10 0 -15 -10 -15 -30 0 -20 -5 -30 -15 -30 -13 0 -15 -22 -15 -135 0
-113 2 -135 15 -135 10 0 15 10 15 30 0 20 5 30 15 30 8 0 15 7 15 15 0 8 -7
15 -15 15 -11 0 -15 12 -15 45 0 33 4 45 15 45 11 0 15 12 15 45 0 33 4 45 15
45 10 0 15 10 15 30 0 20 5 30 15 30 8 0 15 7 15 15 0 8 7 15 15 15 8 0 15 7
15 15 0 8 7 15 15 15 8 0 15 7 15 15 0 10 10 15 30 15 20 0 30 5 30 15 0 12
15 15 75 15 60 0 75 3 75 15 0 13 27 15 180 15 153 0 180 2 180 15 0 13 20 15
120 15 100 0 120 -2 120 -15 0 -11 12 -15 45 -15 33 0 45 -4 45 -15 0 -8 7
-15 15 -15 12 0 15 -13 15 -60 0 -47 -3 -60 -15 -60 -12 0 -15 -15 -15 -75 0
-60 3 -75 15 -75 10 0 15 10 15 30 0 20 5 30 15 30 10 0 15 10 15 30 0 20 5
30 15 30 12 0 15 17 15 90 0 73 -3 90 -15 90 -8 0 -15 7 -15 15 0 10 -10 15
-30 15 -20 0 -30 5 -30 15 0 11 -12 15 -45 15 -33 0 -45 4 -45 15 0 13 -27 15
-180 15 -153 0 -180 -2 -180 -15z"/>
<path d="M3060 3105 c0 -8 -7 -15 -15 -15 -12 0 -15 -17 -15 -90 l0 -90 30 0
30 0 0 75 c0 60 3 75 15 75 8 0 15 7 15 15 0 12 13 15 60 15 47 0 60 -3 60
-15 0 -8 7 -15 15 -15 8 0 15 -7 15 -15 0 -8 7 -15 15 -15 8 0 15 -7 15 -15 0
-8 7 -15 15 -15 8 0 15 -7 15 -15 0 -8 -7 -15 -15 -15 -10 0 -15 -10 -15 -30
0 -20 5 -30 15 -30 8 0 15 -7 15 -15 0 -8 7 -15 15 -15 12 0 15 13 15 60 0 47
-3 60 -15 60 -12 0 -15 13 -15 60 l0 60 -135 0 c-113 0 -135 -2 -135 -15z"/>
<path d="M7770 3105 c0 -13 -25 -15 -165 -15 -140 0 -165 -2 -165 -15 0 -12
-20 -15 -120 -15 -100 0 -120 -2 -120 -15 0 -11 -12 -15 -45 -15 -33 0 -45 -4
-45 -15 0 -11 -12 -15 -45 -15 -43 0 -45 -1 -45 -30 0 -20 5 -30 15 -30 8 0
15 -7 15 -15 0 -10 10 -15 30 -15 20 0 30 5 30 15 0 13 40 15 300 15 260 0
300 2 300 15 0 12 13 15 60 15 47 0 60 3 60 15 0 12 13 15 60 15 l60 0 0 60 0
60 -90 0 c-73 0 -90 -3 -90 -15z m-30 -90 c0 -12 -20 -15 -120 -15 -100 0
-120 3 -120 15 0 13 20 15 120 15 100 0 120 -2 120 -15z"/>
<path d="M6390 2985 c0 -13 -22 -15 -135 -15 -113 0 -135 -2 -135 -15 0 -11
-12 -15 -45 -15 l-45 0 0 -45 c0 -33 4 -45 15 -45 8 0 15 -7 15 -15 0 -12 17
-15 90 -15 73 0 90 3 90 15 0 13 23 15 150 15 127 0 150 2 150 15 0 13 -25 15
-165 15 -140 0 -165 2 -165 15 0 13 27 15 180 15 153 0 180 -2 180 -15 0 -12
15 -15 75 -15 60 0 75 3 75 15 0 10 10 15 30 15 27 0 30 3 30 30 0 20 -5 30
-15 30 -8 0 -15 7 -15 15 0 13 -27 15 -180 15 -153 0 -180 -2 -180 -15z"/>
<path d="M300 2955 c0 -12 -17 -15 -90 -15 -73 0 -90 -3 -90 -15 0 -10 -10
-15 -30 -15 -20 0 -30 -5 -30 -15 0 -8 -7 -15 -15 -15 -8 0 -15 -7 -15 -15 0
-8 -7 -15 -15 -15 -13 0 -15 -38 -15 -285 l0 -285 60 0 c47 0 60 -3 60 -15 0
-13 30 -15 210 -15 180 0 210 -2 210 -15 0 -13 33 -15 240 -15 207 0 240 -2
240 -15 0 -13 32 -15 225 -15 193 0 225 -2 225 -15 0 -11 12 -15 45 -15 43 0
45 1 45 30 l0 30 -105 0 c-87 0 -105 3 -105 15 0 13 -20 15 -120 15 -100 0
-120 3 -120 15 0 13 -27 15 -180 15 -153 0 -180 2 -180 15 0 13 -38 15 -285
15 -247 0 -285 2 -285 15 0 12 -15 15 -75 15 -60 0 -75 3 -75 15 0 12 15 15
75 15 60 0 75 3 75 15 0 12 15 15 75 15 60 0 75 3 75 15 0 12 17 15 90 15 73
0 90 3 90 15 0 13 23 15 150 15 127 0 150 2 150 15 0 12 18 15 105 15 87 0
105 3 105 15 0 12 13 15 60 15 47 0 60 3 60 15 0 8 7 15 15 15 8 0 15 -7 15
-15 0 -8 7 -15 15 -15 8 0 15 7 15 15 0 12 13 15 60 15 47 0 60 3 60 15 0 12
13 15 60 15 47 0 60 3 60 15 0 12 -15 15 -75 15 -60 0 -75 -3 -75 -15 0 -13
-22 -15 -135 -15 -113 0 -135 -2 -135 -15 0 -12 -18 -15 -105 -15 -87 0 -105
-3 -105 -15 0 -12 -15 -15 -75 -15 -60 0 -75 -3 -75 -15 0 -12 -20 -15 -120
-15 -100 0 -120 -2 -120 -15 0 -12 -20 -15 -120 -15 -100 0 -120 -2 -120 -15
0 -11 -12 -15 -45 -15 -33 0 -45 4 -45 15 0 8 -7 15 -15 15 -12 0 -15 15 -15
75 0 60 -3 75 -15 75 -12 0 -15 18 -15 105 0 87 3 105 15 105 8 0 15 7 15 15
0 10 10 15 30 15 20 0 30 5 30 15 0 13 22 15 135 15 113 0 135 2 135 15 0 13
27 15 180 15 153 0 180 -2 180 -15 0 -11 12 -15 45 -15 33 0 45 -4 45 -15 0
-10 10 -15 30 -15 20 0 30 -5 30 -15 0 -10 10 -15 30 -15 27 0 30 -3 30 -30 0
-20 5 -30 15 -30 12 0 15 -13 15 -60 0 -47 3 -60 15 -60 8 0 15 7 15 15 0 8 7
15 15 15 10 0 15 10 15 30 0 20 -5 30 -15 30 -11 0 -15 12 -15 45 0 33 -4 45
-15 45 -8 0 -15 7 -15 15 0 8 -7 15 -15 15 -8 0 -15 7 -15 15 0 8 -7 15 -15
15 -8 0 -15 7 -15 15 0 10 -10 15 -30 15 -20 0 -30 5 -30 15 0 11 -12 15 -45
15 -33 0 -45 4 -45 15 0 13 -33 15 -240 15 -207 0 -240 -2 -240 -15z"/>
<path d="M8970 2955 c0 -12 -15 -15 -75 -15 -60 0 -75 -3 -75 -15 0 -8 -7 -15
-15 -15 -8 0 -15 -7 -15 -15 0 -12 -13 -15 -60 -15 -47 0 -60 -3 -60 -15 0
-11 -12 -15 -45 -15 -33 0 -45 -4 -45 -15 0 -10 -10 -15 -30 -15 -20 0 -30 -5
-30 -15 0 -8 -7 -15 -15 -15 -12 0 -15 -13 -15 -60 0 -47 -3 -60 -15 -60 -11
0 -15 -12 -15 -45 0 -33 4 -45 15 -45 10 0 15 -10 15 -30 0 -20 -5 -30 -15
-30 -8 0 -15 -7 -15 -15 0 -8 7 -15 15 -15 11 0 15 -12 15 -45 0 -33 4 -45 15
-45 8 0 15 7 15 15 0 8 7 15 15 15 8 0 15 7 15 15 0 8 -7 15 -15 15 -13 0 -15
22 -15 135 0 113 2 135 15 135 10 0 15 10 15 30 0 27 3 30 30 30 20 0 30 5 30
15 0 11 12 15 45 15 33 0 45 4 45 15 0 12 13 15 60 15 47 0 60 3 60 15 0 12
17 15 90 15 73 0 90 3 90 15 0 13 27 15 180 15 l180 0 0 -180 c0 -153 2 -180
15 -180 12 0 15 15 15 75 0 60 3 75 15 75 13 0 15 20 15 120 0 100 -2 120 -15
120 -8 0 -15 7 -15 15 0 13 -30 15 -210 15 -180 0 -210 -2 -210 -15z"/>
<path d="M3990 2775 c0 -11 -12 -15 -45 -15 -33 0 -45 -4 -45 -15 0 -11 -12
-15 -45 -15 -43 0 -45 -1 -45 -30 0 -20 5 -30 15 -30 8 0 15 -7 15 -15 0 -8 7
-15 15 -15 8 0 15 -7 15 -15 0 -13 23 -15 150 -15 127 0 150 2 150 15 0 12 17
15 90 15 73 0 90 3 90 15 0 10 10 15 30 15 20 0 30 5 30 15 0 8 7 15 15 15 8
0 15 7 15 15 0 8 -7 15 -15 15 -8 0 -15 7 -15 15 0 8 -7 15 -15 15 -8 0 -15 7
-15 15 0 13 -28 15 -195 15 -167 0 -195 -2 -195 -15z"/>
<path d="M7830 2745 c0 -13 -22 -15 -135 -15 -113 0 -135 -2 -135 -15 0 -12
-17 -15 -90 -15 -73 0 -90 -3 -90 -15 0 -12 -13 -15 -60 -15 -47 0 -60 -3 -60
-15 0 -10 -10 -15 -30 -15 -20 0 -30 -5 -30 -15 0 -8 -7 -15 -15 -15 -8 0 -15
-7 -15 -15 0 -8 -7 -15 -15 -15 -8 0 -15 -7 -15 -15 0 -8 -7 -15 -15 -15 -8 0
-15 -7 -15 -15 0 -8 7 -15 15 -15 8 0 15 -7 15 -15 0 -8 -7 -15 -15 -15 -8 0
-15 -7 -15 -15 0 -8 7 -15 15 -15 12 0 15 -15 15 -75 0 -60 3 -75 15 -75 13 0
15 20 15 120 l0 120 30 0 c20 0 30 5 30 15 0 8 7 15 15 15 8 0 15 7 15 15 0
12 13 15 60 15 47 0 60 3 60 15 0 12 17 15 90 15 73 0 90 3 90 15 0 12 13 15
60 15 47 0 60 3 60 15 0 13 23 15 150 15 127 0 150 -2 150 -15 0 -8 7 -15 15
-15 8 0 15 -7 15 -15 0 -8 7 -15 15 -15 8 0 15 -7 15 -15 0 -8 7 -15 15 -15
12 0 15 -17 15 -90 0 -73 3 -90 15 -90 12 0 15 18 15 105 0 87 -3 105 -15 105
-10 0 -15 10 -15 30 0 20 -5 30 -15 30 -8 0 -15 7 -15 15 0 12 -13 15 -60 15
-47 0 -60 3 -60 15 0 11 -12 15 -45 15 -33 0 -45 -4 -45 -15z"/>
<path d="M2820 2655 c0 -8 -7 -15 -15 -15 -8 0 -15 -7 -15 -15 0 -8 -7 -15
-15 -15 -8 0 -15 -7 -15 -15 0 -8 7 -15 15 -15 8 0 15 -7 15 -15 0 -8 7 -15
15 -15 8 0 15 7 15 15 0 13 22 15 135 15 113 0 135 -2 135 -15 0 -8 7 -15 15
-15 8 0 15 7 15 15 0 13 27 15 180 15 153 0 180 2 180 15 0 8 7 15 15 15 8 0
15 7 15 15 0 8 -7 15 -15 15 -8 0 -15 7 -15 15 0 13 -43 15 -330 15 -287 0
-330 -2 -330 -15z"/>
<path d="M5970 2655 c0 -11 -12 -15 -45 -15 -33 0 -45 -4 -45 -15 0 -11 -12
-15 -45 -15 -33 0 -45 -4 -45 -15 0 -8 -7 -15 -15 -15 -8 0 -15 -7 -15 -15 0
-8 -7 -15 -15 -15 -8 0 -15 -7 -15 -15 0 -8 -7 -15 -15 -15 -12 0 -15 -13 -15
-60 0 -47 -3 -60 -15 -60 -10 0 -15 -10 -15 -30 0 -20 5 -30 15 -30 12 0 15
-13 15 -60 0 -47 3 -60 15 -60 13 0 15 22 15 135 0 113 2 135 15 135 8 0 15 7
15 15 0 8 7 15 15 15 8 0 15 7 15 15 0 8 7 15 15 15 8 0 15 7 15 15 0 12 17
15 90 15 73 0 90 3 90 15 0 13 42 15 315 15 273 0 315 -2 315 -15 0 -8 7 -15
15 -15 8 0 15 -7 15 -15 0 -8 7 -15 15 -15 8 0 15 -7 15 -15 0 -8 7 -15 15
-15 12 0 15 -13 15 -60 0 -47 -3 -60 -15 -60 -12 0 -15 -15 -15 -75 l0 -75 30
0 30 0 0 165 c0 140 -2 165 -15 165 -8 0 -15 7 -15 15 0 10 -10 15 -30 15 -20
0 -30 5 -30 15 0 10 -10 15 -30 15 -20 0 -30 5 -30 15 0 13 -42 15 -315 15
-273 0 -315 -2 -315 -15z"/>
<path d="M10800 2655 c0 -12 -20 -15 -120 -15 -100 0 -120 -2 -120 -15 0 -12
-17 -15 -90 -15 -73 0 -90 -3 -90 -15 0 -12 -20 -15 -120 -15 -100 0 -120 -2
-120 -15 0 -12 -18 -15 -105 -15 -87 0 -105 -3 -105 -15 0 -12 -15 -15 -75
-15 -60 0 -75 -3 -75 -15 0 -11 -12 -15 -45 -15 -33 0 -45 -4 -45 -15 0 -8 -7
-15 -15 -15 -8 0 -15 -7 -15 -15 0 -8 7 -15 15 -15 8 0 15 -7 15 -15 0 -11 12
-15 45 -15 33 0 45 -4 45 -15 0 -12 18 -15 105 -15 87 0 105 -3 105 -15 0 -12
15 -15 75 -15 60 0 75 3 75 15 0 10 10 15 30 15 20 0 30 -5 30 -15 0 -8 7 -15
15 -15 8 0 15 -7 15 -15 0 -8 -7 -15 -15 -15 -8 0 -15 -7 -15 -15 0 -8 7 -15
15 -15 12 0 15 -17 15 -90 0 -73 -3 -90 -15 -90 -11 0 -15 -12 -15 -45 0 -33
4 -45 15 -45 10 0 15 -10 15 -30 0 -20 -5 -30 -15 -30 -8 0 -15 -7 -15 -15 0
-8 7 -15 15 -15 13 0 15 -38 15 -285 0 -247 2 -285 15 -285 8 0 15 -7 15 -15
0 -8 7 -15 15 -15 13 0 15 67 15 540 l0 540 60 0 c47 0 60 3 60 15 0 12 13 15
60 15 47 0 60 3 60 15 0 12 18 15 105 15 87 0 105 3 105 15 0 12 17 15 90 15
73 0 90 3 90 15 0 8 7 15 15 15 13 0 15 -58 15 -465 0 -407 2 -465 15 -465 8
0 15 7 15 15 0 8 7 15 15 15 11 0 15 12 15 45 0 33 -4 45 -15 45 -13 0 -15 37
-15 270 0 233 2 270 15 270 13 0 15 25 15 165 0 140 -2 165 -15 165 -10 0 -15
10 -15 30 0 27 -3 30 -30 30 -20 0 -30 -5 -30 -15 0 -8 7 -15 15 -15 8 0 15
-7 15 -15 0 -11 -12 -15 -45 -15 -33 0 -45 -4 -45 -15 0 -12 -17 -15 -90 -15
-73 0 -90 -3 -90 -15 0 -12 -13 -15 -60 -15 -47 0 -60 -3 -60 -15 0 -12 -15
-15 -75 -15 -60 0 -75 -3 -75 -15 0 -11 -12 -15 -45 -15 -43 0 -45 1 -45 30 0
20 5 30 15 30 8 0 15 7 15 15 0 11 12 15 45 15 33 0 45 4 45 15 0 12 17 15 90
15 73 0 90 3 90 15 0 12 17 15 90 15 73 0 90 3 90 15 0 8 7 15 15 15 8 0 15 7
15 15 0 8 -7 15 -15 15 -8 0 -15 -7 -15 -15z m-540 -165 c0 -20 -5 -30 -15
-30 -8 0 -15 -7 -15 -15 0 -13 -27 -15 -180 -15 l-180 0 0 30 0 30 135 0 c113
0 135 2 135 15 0 12 13 15 60 15 l60 0 0 -30z"/>
<path d="M5070 2505 c0 -13 -25 -15 -165 -15 -140 0 -165 -2 -165 -15 0 -12
-18 -15 -105 -15 -87 0 -105 -3 -105 -15 0 -12 -13 -15 -60 -15 -47 0 -60 -3
-60 -15 0 -10 -10 -15 -30 -15 -20 0 -30 -5 -30 -15 0 -10 -10 -15 -30 -15
-20 0 -30 -5 -30 -15 0 -10 -10 -15 -30 -15 -20 0 -30 -5 -30 -15 0 -8 -7 -15
-15 -15 -10 0 -15 -10 -15 -30 0 -20 -5 -30 -15 -30 -10 0 -15 -10 -15 -30 0
-20 -5 -30 -15 -30 -12 0 -15 -18 -15 -105 0 -87 3 -105 15 -105 12 0 15 17
15 90 0 73 3 90 15 90 8 0 15 7 15 15 0 8 7 15 15 15 10 0 15 10 15 30 0 20 5
30 15 30 10 0 15 10 15 30 0 27 3 30 30 30 20 0 30 5 30 15 0 11 12 15 45 15
33 0 45 4 45 15 0 12 13 15 60 15 47 0 60 3 60 15 0 12 13 15 60 15 47 0 60 3
60 15 0 13 22 15 135 15 113 0 135 2 135 15 0 13 25 15 165 15 140 0 165 -2
165 -15 0 -8 7 -15 15 -15 8 0 15 -7 15 -15 0 -8 7 -15 15 -15 13 0 15 -25 15
-165 0 -140 2 -165 15 -165 13 0 15 28 15 195 l0 195 -30 0 c-20 0 -30 5 -30
15 0 12 -15 15 -75 15 -60 0 -75 3 -75 15 0 10 -10 15 -30 15 -20 0 -30 -5
-30 -15z"/>
<path d="M1050 2475 c0 -12 -17 -15 -90 -15 l-90 0 0 -30 c0 -29 2 -30 45 -30
33 0 45 -4 45 -15 0 -13 37 -15 270 -15 233 0 270 2 270 15 0 8 7 15 15 15 8
0 15 7 15 15 0 8 7 15 15 15 10 0 15 10 15 30 l0 30 -255 0 c-220 0 -255 -2
-255 -15z m210 -30 c0 -11 -12 -15 -45 -15 -33 0 -45 4 -45 15 0 11 12 15 45
15 33 0 45 -4 45 -15z m90 0 c0 -8 -7 -15 -15 -15 -8 0 -15 7 -15 15 0 8 7 15
15 15 8 0 15 -7 15 -15z"/>
<path d="M9210 2415 c0 -12 -13 -15 -60 -15 -47 0 -60 -3 -60 -15 0 -11 -12
-15 -45 -15 -33 0 -45 -4 -45 -15 0 -12 -17 -15 -90 -15 -73 0 -90 -3 -90 -15
0 -13 -23 -15 -150 -15 -127 0 -150 2 -150 15 0 12 -13 15 -60 15 -47 0 -60
-3 -60 -15 0 -8 7 -15 15 -15 10 0 15 -10 15 -30 0 -20 -5 -30 -15 -30 -8 0
-15 7 -15 15 0 8 -7 15 -15 15 -8 0 -15 -7 -15 -15 0 -8 -7 -15 -15 -15 -13 0
-15 -45 -15 -345 l0 -345 -105 0 -105 0 0 60 c0 47 3 60 15 60 8 0 15 7 15 15
0 8 -7 15 -15 15 -8 0 -15 7 -15 15 0 8 7 15 15 15 13 0 15 25 15 165 0 140 2
165 15 165 11 0 15 12 15 45 0 33 -4 45 -15 45 -8 0 -15 7 -15 15 0 10 -10 15
-30 15 -20 0 -30 5 -30 15 0 13 -22 15 -135 15 -113 0 -135 -2 -135 -15 0 -12
-18 -15 -105 -15 -87 0 -105 -3 -105 -15 0 -12 -18 -15 -105 -15 -87 0 -105
-3 -105 -15 0 -10 -10 -15 -30 -15 -20 0 -30 -5 -30 -15 0 -13 22 -15 135 -15
113 0 135 2 135 15 0 12 15 15 75 15 60 0 75 3 75 15 0 12 15 15 75 15 60 0
75 3 75 15 0 12 15 15 75 15 60 0 75 -3 75 -15 0 -8 7 -15 15 -15 10 0 15 -10
15 -30 l0 -30 -60 0 c-47 0 -60 -3 -60 -15 0 -12 -17 -15 -90 -15 -73 0 -90
-3 -90 -15 0 -13 -43 -15 -330 -15 -287 0 -330 2 -330 15 0 12 -13 15 -60 15
l-60 0 0 -255 c0 -220 -2 -255 -15 -255 -13 0 -15 -35 -15 -255 0 -220 2 -255
15 -255 10 0 15 -10 15 -30 0 -20 5 -30 15 -30 13 0 15 50 15 390 0 340 2 390
15 390 10 0 15 10 15 30 0 20 5 30 15 30 8 0 15 7 15 15 0 8 -7 15 -15 15 -11
0 -15 12 -15 45 0 43 1 45 30 45 20 0 30 -5 30 -15 0 -10 10 -15 30 -15 20 0
30 -5 30 -15 0 -8 7 -15 15 -15 8 0 15 -7 15 -15 0 -8 -7 -15 -15 -15 -8 0
-15 -7 -15 -15 0 -8 7 -15 15 -15 12 0 15 -15 15 -75 0 -60 -3 -75 -15 -75
-13 0 -15 -48 -15 -375 l0 -375 30 0 30 0 0 510 0 510 30 0 30 0 0 -60 c0 -47
-3 -60 -15 -60 -13 0 -15 -62 -15 -495 0 -433 2 -495 15 -495 13 0 15 22 15
135 0 113 2 135 15 135 13 0 15 45 15 345 0 300 2 345 15 345 12 0 15 15 15
75 l0 75 120 0 c100 0 120 3 120 15 0 12 18 15 105 15 87 0 105 3 105 15 0 10
10 15 30 15 20 0 30 -5 30 -15 0 -8 7 -15 15 -15 8 0 15 -7 15 -15 0 -8 -7
-15 -15 -15 -8 0 -15 -7 -15 -15 0 -8 7 -15 15 -15 8 0 15 -7 15 -15 0 -8 -7
-15 -15 -15 -10 0 -15 -10 -15 -30 0 -20 5 -30 15 -30 13 0 15 -40 15 -300 0
-260 2 -300 15 -300 13 0 15 50 15 390 l0 390 30 0 c20 0 30 5 30 15 0 10 10
15 30 15 20 0 30 5 30 15 0 8 7 15 15 15 13 0 15 -30 15 -210 0 -180 -2 -210
-15 -210 -13 0 -15 -43 -15 -330 l0 -330 30 0 30 0 0 210 c0 180 2 210 15 210
12 0 15 13 15 60 l0 60 90 0 90 0 0 -135 c0 -113 2 -135 15 -135 8 0 15 -7 15
-15 0 -8 7 -15 15 -15 8 0 15 7 15 15 0 8 7 15 15 15 8 0 15 -7 15 -15 0 -8 7
-15 15 -15 11 0 15 -12 15 -45 0 -33 4 -45 15 -45 13 0 15 62 15 495 0 433 -2
495 -15 495 -12 0 -15 -20 -15 -120 0 -100 -2 -120 -15 -120 -11 0 -15 -12
-15 -45 0 -33 -4 -45 -15 -45 -13 0 -15 25 -15 165 0 140 -2 165 -15 165 -8 0
-15 7 -15 15 0 8 7 15 15 15 10 0 15 10 15 30 0 29 2 30 45 30 33 0 45 -4 45
-15 0 -12 15 -15 75 -15 60 0 75 -3 75 -15 0 -12 13 -15 60 -15 47 0 60 3 60
15 0 13 20 15 120 15 100 0 120 3 120 15 0 12 17 15 90 15 l90 0 0 -150 c0
-127 -2 -150 -15 -150 -13 0 -15 -37 -15 -270 l0 -270 30 0 30 0 0 120 c0 100
3 120 15 120 10 0 15 10 15 30 0 20 5 30 15 30 10 0 15 -10 15 -30 0 -20 5
-30 15 -30 8 0 15 7 15 15 0 8 7 15 15 15 8 0 15 7 15 15 0 10 10 15 30 15 20
0 30 5 30 15 0 8 7 15 15 15 12 0 15 -17 15 -90 0 -73 -3 -90 -15 -90 -13 0
-15 -23 -15 -150 0 -127 2 -150 15 -150 8 0 15 7 15 15 0 8 7 15 15 15 13 0
15 20 15 120 0 100 3 120 15 120 13 0 15 28 15 195 0 167 2 195 15 195 13 0
15 30 15 210 0 180 2 210 15 210 10 0 15 10 15 30 0 20 -5 30 -15 30 -10 0
-15 10 -15 30 l0 30 -150 0 c-127 0 -150 -2 -150 -15z m240 -60 c0 -11 -12
-15 -45 -15 -33 0 -45 -4 -45 -15 0 -12 -17 -15 -90 -15 -73 0 -90 -3 -90 -15
0 -12 -18 -15 -105 -15 -87 0 -105 -3 -105 -15 0 -11 -12 -15 -45 -15 -33 0
-45 -4 -45 -15 0 -13 -27 -15 -180 -15 -153 0 -180 2 -180 15 0 13 27 15 180
15 153 0 180 2 180 15 0 10 10 15 30 15 20 0 30 5 30 15 0 12 13 15 60 15 47
0 60 3 60 15 0 12 15 15 75 15 60 0 75 3 75 15 0 13 20 15 120 15 100 0 120
-2 120 -15z m-30 -90 c0 -8 7 -15 15 -15 13 0 15 -27 15 -180 0 -153 -2 -180
-15 -180 -12 0 -15 -15 -15 -75 l0 -75 -60 0 -60 0 0 105 c0 87 3 105 15 105
12 0 15 18 15 105 0 87 -3 105 -15 105 -8 0 -15 7 -15 15 0 8 -7 15 -15 15
-13 0 -15 -33 -15 -240 0 -207 -2 -240 -15 -240 -13 0 -15 37 -15 270 l0 270
75 0 c60 0 75 3 75 15 0 8 7 15 15 15 8 0 15 -7 15 -15z"/>
<path d="M10320 2145 c0 -140 2 -165 15 -165 8 0 15 -7 15 -15 0 -8 -7 -15
-15 -15 -8 0 -15 -7 -15 -15 0 -8 7 -15 15 -15 8 0 15 -7 15 -15 0 -8 -7 -15
-15 -15 -10 0 -15 -10 -15 -30 0 -20 5 -30 15 -30 10 0 15 -10 15 -30 0 -20
-5 -30 -15 -30 -8 0 -15 -7 -15 -15 0 -8 7 -15 15 -15 13 0 15 -33 15 -240 l0
-240 30 0 30 0 0 285 0 285 30 0 c29 0 30 -2 30 -45 0 -33 4 -45 15 -45 8 0
15 7 15 15 0 8 7 15 15 15 10 0 15 10 15 30 0 27 3 30 30 30 20 0 30 5 30 15
0 8 7 15 15 15 8 0 15 7 15 15 0 8 -7 15 -15 15 -8 0 -15 7 -15 15 0 8 -7 15
-15 15 -8 0 -15 -7 -15 -15 0 -8 -7 -15 -15 -15 -13 0 -15 28 -15 195 0 167
-2 195 -15 195 -8 0 -15 7 -15 15 0 8 -7 15 -15 15 -13 0 -15 -30 -15 -210 l0
-210 -30 0 c-27 0 -30 3 -30 30 0 20 -5 30 -15 30 -13 0 -15 25 -15 165 0 140
-2 165 -15 165 -8 0 -15 7 -15 15 0 8 -7 15 -15 15 -13 0 -15 -25 -15 -165z"/>
<path d="M9810 2055 c0 -193 -2 -225 -15 -225 -8 0 -15 -7 -15 -15 0 -8 -7
-15 -15 -15 -10 0 -15 -10 -15 -30 0 -20 5 -30 15 -30 8 0 15 -7 15 -15 0 -8
7 -15 15 -15 13 0 15 -20 15 -120 l0 -120 30 0 30 0 0 135 0 135 90 0 c73 0
90 3 90 15 0 10 10 15 30 15 20 0 30 5 30 15 0 10 10 15 30 15 20 0 30 5 30
15 0 12 -13 15 -60 15 -47 0 -60 -3 -60 -15 0 -12 -17 -15 -90 -15 l-90 0 0
240 0 240 -30 0 -30 0 0 -225z"/>
<path d="M3840 1785 c0 -380 2 -435 15 -435 13 0 15 -47 15 -360 l0 -360 -90
0 c-73 0 -90 -3 -90 -15 0 -12 -18 -15 -105 -15 -87 0 -105 -3 -105 -15 0 -12
-15 -15 -75 -15 -60 0 -75 -3 -75 -15 0 -11 -12 -15 -45 -15 -33 0 -45 -4 -45
-15 0 -12 -18 -15 -105 -15 -87 0 -105 -3 -105 -15 0 -12 -20 -15 -120 -15
-100 0 -120 -2 -120 -15 0 -12 -17 -15 -90 -15 -73 0 -90 -3 -90 -15 0 -11
-12 -15 -45 -15 -33 0 -45 -4 -45 -15 0 -12 -15 -15 -75 -15 -60 0 -75 -3 -75
-15 0 -12 -15 -15 -75 -15 -60 0 -75 -3 -75 -15 0 -12 -15 -15 -75 -15 -60 0
-75 -3 -75 -15 0 -8 -7 -15 -15 -15 -8 0 -15 -7 -15 -15 0 -12 18 -15 105 -15
87 0 105 3 105 15 0 12 13 15 60 15 47 0 60 3 60 15 0 12 13 15 60 15 47 0 60
3 60 15 0 12 15 15 75 15 60 0 75 3 75 15 0 13 20 15 120 15 100 0 120 3 120
15 0 12 18 15 105 15 87 0 105 3 105 15 0 12 13 15 60 15 47 0 60 3 60 15 0
12 15 15 75 15 60 0 75 3 75 15 0 12 18 15 105 15 87 0 105 3 105 15 0 12 18
15 105 15 87 0 105 3 105 15 0 12 13 15 60 15 47 0 60 3 60 15 0 8 7 15 15 15
8 0 15 7 15 15 0 8 7 15 15 15 8 0 15 7 15 15 0 11 12 15 45 15 l45 0 0 45 0
45 -60 0 -60 0 0 120 c0 100 -2 120 -15 120 -13 0 -15 60 -15 480 0 420 -2
480 -15 480 -13 0 -15 22 -15 135 0 113 -2 135 -15 135 -13 0 -15 -55 -15
-435z"/>
<path d="M1620 2085 c0 -8 -7 -15 -15 -15 -13 0 -15 -22 -15 -135 0 -113 2
-135 15 -135 8 0 15 -7 15 -15 0 -8 -7 -15 -15 -15 -8 0 -15 -7 -15 -15 0 -8
7 -15 15 -15 8 0 15 -7 15 -15 0 -8 -7 -15 -15 -15 -13 0 -15 -50 -15 -390 0
-340 -2 -390 -15 -390 -13 0 -15 -45 -15 -345 l0 -345 -75 0 c-60 0 -75 3 -75
15 0 10 -10 15 -30 15 -20 0 -30 5 -30 15 0 10 -10 15 -30 15 -20 0 -30 5 -30
15 0 11 -12 15 -45 15 -33 0 -45 4 -45 15 0 11 -12 15 -45 15 -33 0 -45 4 -45
15 0 12 -13 15 -60 15 -47 0 -60 3 -60 15 0 11 -12 15 -45 15 -33 0 -45 4 -45
15 0 12 -17 15 -90 15 -73 0 -90 3 -90 15 0 13 -22 15 -135 15 -113 0 -135 2
-135 15 0 12 -15 15 -75 15 -60 0 -75 3 -75 15 0 13 -23 15 -150 15 l-150 0 0
-30 0 -30 150 0 c127 0 150 -2 150 -15 0 -11 12 -15 45 -15 33 0 45 -4 45 -15
0 -13 22 -15 135 -15 113 0 135 -2 135 -15 0 -12 18 -15 105 -15 87 0 105 -3
105 -15 0 -12 17 -15 90 -15 73 0 90 -3 90 -15 0 -10 10 -15 30 -15 20 0 30
-5 30 -15 0 -10 10 -15 30 -15 20 0 30 -5 30 -15 0 -11 12 -15 45 -15 33 0 45
-4 45 -15 0 -11 12 -15 45 -15 33 0 45 -4 45 -15 0 -10 10 -15 30 -15 20 0 30
-5 30 -15 0 -11 12 -15 45 -15 33 0 45 -4 45 -15 0 -10 10 -15 30 -15 20 0 30
5 30 15 0 8 7 15 15 15 8 0 15 7 15 15 0 8 7 15 15 15 13 0 15 42 15 315 0
273 2 315 15 315 13 0 15 77 15 630 0 553 -2 630 -15 630 -8 0 -15 -7 -15 -15z"/>
<path d="M8580 1635 c0 -407 2 -465 15 -465 11 0 15 -12 15 -45 0 -33 4 -45
15 -45 10 0 15 10 15 30 0 20 5 30 15 30 8 0 15 7 15 15 0 8 -7 15 -15 15 -13
0 -15 23 -15 150 0 127 -2 150 -15 150 -13 0 -15 42 -15 315 0 273 -2 315 -15
315 -13 0 -15 -58 -15 -465z"/>
<path d="M6390 2025 c0 -12 -15 -15 -75 -15 -60 0 -75 -3 -75 -15 0 -13 -33
-15 -240 -15 -207 0 -240 -2 -240 -15 0 -8 -7 -15 -15 -15 -13 0 -15 -43 -15
-330 0 -287 2 -330 15 -330 12 0 15 -17 15 -90 0 -73 -3 -90 -15 -90 -10 0
-15 -10 -15 -30 l0 -30 -90 0 c-73 0 -90 -3 -90 -15 0 -11 -12 -15 -45 -15
l-45 0 0 420 c0 367 -2 420 -15 420 -8 0 -15 -7 -15 -15 0 -8 -7 -15 -15 -15
-12 0 -15 -18 -15 -105 0 -87 3 -105 15 -105 13 0 15 -58 15 -465 0 -407 2
-465 15 -465 13 0 15 22 15 135 l0 135 30 0 c20 0 30 5 30 15 0 11 12 15 45
15 33 0 45 4 45 15 0 12 15 15 75 15 l75 0 0 -45 c0 -43 1 -45 30 -45 l30 0 0
285 c0 247 -2 285 -15 285 -8 0 -15 7 -15 15 0 8 7 15 15 15 8 0 15 7 15 15 0
8 -7 15 -15 15 -13 0 -15 22 -15 135 l0 135 60 0 c47 0 60 -3 60 -15 0 -13 30
-15 210 -15 180 0 210 2 210 15 0 13 23 15 150 15 l150 0 0 -405 c0 -353 2
-405 15 -405 13 0 15 53 15 420 l0 420 45 0 45 0 0 -540 c0 -473 2 -540 15
-540 13 0 15 27 15 180 0 153 2 180 15 180 13 0 15 47 15 360 0 313 -2 360
-15 360 -11 0 -15 12 -15 45 0 43 -1 45 -30 45 -20 0 -30 -5 -30 -15 0 -11
-12 -15 -45 -15 -33 0 -45 -4 -45 -15 0 -13 -25 -15 -165 -15 -140 0 -165 -2
-165 -15 0 -13 -28 -15 -195 -15 -167 0 -195 2 -195 15 0 10 -10 15 -30 15
-20 0 -30 5 -30 15 0 10 -10 15 -30 15 -20 0 -30 5 -30 15 0 10 10 15 30 15
20 0 30 -5 30 -15 0 -13 25 -15 165 -15 140 0 165 2 165 15 0 13 20 15 120 15
100 0 120 3 120 15 0 12 18 15 105 15 87 0 105 3 105 15 0 10 10 15 30 15 20
0 30 5 30 15 0 13 -23 15 -150 15 -127 0 -150 -2 -150 -15z"/>
<path d="M5100 1875 c0 -10 -10 -15 -30 -15 -20 0 -30 -5 -30 -15 0 -12 -17
-15 -90 -15 -73 0 -90 -3 -90 -15 0 -13 -42 -15 -315 -15 -273 0 -315 -2 -315
-15 0 -10 10 -15 30 -15 20 0 30 -5 30 -15 0 -13 32 -15 225 -15 193 0 225 2
225 15 0 12 15 15 75 15 60 0 75 3 75 15 0 12 18 15 105 15 87 0 105 3 105 15
0 12 17 15 90 15 73 0 90 3 90 15 0 8 -7 15 -15 15 -8 0 -15 7 -15 15 0 12
-15 15 -75 15 -60 0 -75 -3 -75 -15z"/>
<path d="M9540 1785 c0 -8 -7 -15 -15 -15 -8 0 -15 -7 -15 -15 0 -8 7 -15 15
-15 8 0 15 -7 15 -15 0 -8 7 -15 15 -15 8 0 15 7 15 15 0 10 10 15 30 15 20 0
30 5 30 15 0 8 7 15 15 15 8 0 15 7 15 15 0 12 -13 15 -60 15 -47 0 -60 -3
-60 -15z"/>
<path d="M4140 1755 c0 -8 -7 -15 -15 -15 -11 0 -15 -12 -15 -45 0 -33 -4 -45
-15 -45 -13 0 -15 -37 -15 -270 0 -233 2 -270 15 -270 13 0 15 -25 15 -165 l0
-165 30 0 c27 0 30 -3 30 -30 0 -20 5 -30 15 -30 12 0 15 -18 15 -105 0 -87 3
-105 15 -105 8 0 15 -7 15 -15 0 -8 7 -15 15 -15 13 0 15 32 15 225 0 193 -2
225 -15 225 -13 0 -15 42 -15 315 0 273 2 315 15 315 11 0 15 12 15 45 0 33 4
45 15 45 13 0 15 -47 15 -360 0 -313 2 -360 15 -360 13 0 15 -32 15 -225 l0
-225 30 0 30 0 0 195 c0 167 -2 195 -15 195 -13 0 -15 33 -15 240 0 207 -2
240 -15 240 -12 0 -15 20 -15 120 0 100 3 120 15 120 8 0 15 7 15 15 0 10 10
15 30 15 20 0 30 -5 30 -15 0 -13 22 -15 135 -15 113 0 135 2 135 15 0 13 20
15 120 15 100 0 120 3 120 15 0 12 18 15 105 15 87 0 105 3 105 15 0 12 15 15
75 15 60 0 75 -3 75 -15 0 -8 7 -15 15 -15 13 0 15 -65 15 -525 0 -460 2 -525
15 -525 13 0 15 67 15 540 0 473 2 540 15 540 11 0 15 12 15 45 0 43 -1 45
-30 45 -20 0 -30 -5 -30 -15 0 -12 -13 -15 -60 -15 -47 0 -60 -3 -60 -15 0
-12 -18 -15 -105 -15 -87 0 -105 -3 -105 -15 0 -13 -23 -15 -150 -15 -127 0
-150 -2 -150 -15 0 -13 -22 -15 -135 -15 -113 0 -135 2 -135 15 0 12 -15 15
-75 15 -60 0 -75 3 -75 15 0 10 -10 15 -30 15 -20 0 -30 5 -30 15 0 8 -7 15
-15 15 -8 0 -15 7 -15 15 0 8 -7 15 -15 15 -8 0 -15 -7 -15 -15z m30 -105 c0
-20 5 -30 15 -30 8 0 15 -7 15 -15 0 -8 -7 -15 -15 -15 -13 0 -15 -43 -15
-330 0 -287 -2 -330 -15 -330 -13 0 -15 48 -15 375 0 327 2 375 15 375 10 0
15 -10 15 -30z"/>
<path d="M5880 1665 c0 -87 3 -105 15 -105 13 0 15 -30 15 -210 0 -180 2 -210
15 -210 11 0 15 -12 15 -45 0 -33 -4 -45 -15 -45 -8 0 -15 -7 -15 -15 0 -8 7
-15 15 -15 13 0 15 -23 15 -150 0 -127 2 -150 15 -150 8 0 15 7 15 15 0 8 7
15 15 15 13 0 15 22 15 135 l0 135 30 0 c20 0 30 5 30 15 0 10 10 15 30 15 20
0 30 5 30 15 0 12 -13 15 -60 15 -47 0 -60 3 -60 15 0 8 -7 15 -15 15 -13 0
-15 32 -15 225 0 193 -2 225 -15 225 -12 0 -15 17 -15 90 0 73 -3 90 -15 90
-8 0 -15 7 -15 15 0 8 -7 15 -15 15 -12 0 -15 -18 -15 -105z"/>
<path d="M8700 1620 c0 -29 2 -30 45 -30 33 0 45 4 45 15 0 8 7 15 15 15 8 0
15 7 15 15 0 12 -13 15 -60 15 l-60 0 0 -30z"/>
<path d="M1710 1530 c0 -73 3 -90 15 -90 12 0 15 -15 15 -75 0 -60 3 -75 15
-75 13 0 15 -20 15 -120 0 -100 3 -120 15 -120 13 0 15 -23 15 -150 0 -127 2
-150 15 -150 13 0 15 -20 15 -120 0 -100 3 -120 15 -120 12 0 15 -15 15 -75 0
-60 3 -75 15 -75 12 0 15 -15 15 -75 0 -60 -3 -75 -15 -75 -8 0 -15 -7 -15
-15 0 -12 -15 -15 -75 -15 -60 0 -75 3 -75 15 0 10 -10 15 -30 15 -27 0 -30
-3 -30 -30 0 -29 2 -30 45 -30 33 0 45 -4 45 -15 0 -12 17 -15 90 -15 73 0 90
3 90 15 0 8 7 15 15 15 12 0 15 15 15 75 0 60 -3 75 -15 75 -12 0 -15 20 -15
120 0 100 -2 120 -15 120 -12 0 -15 20 -15 120 0 100 -2 120 -15 120 -12 0
-15 13 -15 60 0 47 -3 60 -15 60 -12 0 -15 20 -15 120 0 100 -2 120 -15 120
-13 0 -15 22 -15 135 0 113 -2 135 -15 135 -12 0 -15 18 -15 105 l0 105 -30 0
-30 0 0 -90z"/>
<path d="M5100 1185 c0 -327 2 -375 15 -375 8 0 15 -7 15 -15 0 -8 7 -15 15
-15 13 0 15 48 15 375 0 327 -2 375 -15 375 -8 0 -15 7 -15 15 0 8 -7 15 -15
15 -13 0 -15 -48 -15 -375z"/>
<path d="M4830 885 c0 -12 -13 -15 -60 -15 -47 0 -60 -3 -60 -15 0 -12 -13
-15 -60 -15 -47 0 -60 -3 -60 -15 0 -8 -7 -15 -15 -15 -8 0 -15 -7 -15 -15 0
-8 -7 -15 -15 -15 -8 0 -15 -7 -15 -15 0 -10 10 -15 30 -15 20 0 30 5 30 15 0
12 13 15 60 15 47 0 60 3 60 15 0 12 13 15 60 15 47 0 60 3 60 15 0 10 10 15
30 15 20 0 30 5 30 15 0 10 10 15 30 15 20 0 30 5 30 15 0 12 -13 15 -60 15
-47 0 -60 -3 -60 -15z"/>
</g>
</svg>
